# xmcd CD database file
#
# Track frame offsets:
#	182
#	35325
#	52565
#	82842
#	104030
#	133550
#	162807
#	194220
#	229862
#	255427
#	289962
#
# Disc length: 4287 seconds
#
# Revision: 0
# Processed by: cddbd v1.5.1PL0 Copyright (c) Steve Scherf et al.
# Submitted via: CDex 1.51
#
DISCID=9010bd0b
DTITLE=Karl Boxer Trio - 9.27.66 Live at Plymouth State College, Plymouth, N.H.
DYEAR=1996
DGENRE=Jazz
TTITLE0=I've Got Rhythm
TTITLE1=The Autumn Leaves
TTITLE2=Stella By Starlight
TTITLE3=Waltz of the Flatted Fifths
TTITLE4=Nica's Dream
TTITLE5=The Girl From Ipanema
TTITLE6=A Piece of the Action
TTITLE7=Milestones
TTITLE8=Poinciana
TTITLE9=Solar
TTITLE10=A Night in Tunisia
EXTD=YEAR: 1996
EXTT0=
EXTT1=
EXTT2=
EXTT3=
EXTT4=
EXTT5=
EXTT6=
EXTT7=
EXTT8=
EXTT9=
EXTT10=
PLAYORDER=
